<svg xmlns="http://www.w3.org/2000/svg" viewBox="0 0 128 128">
    <path d="M64 0C28.65 0 0 28.65 0 64s28.65 64 64 64 64-28.65 64-64S99.35 0 64 0zm0 116.8C34.21 116.8 8.2 90.79 8.2 64S34.21 8.2 64 8.2 119.8 37.21 119.8 64c0 26.79-24.71 52.8-55.8 52.8z" fill="#fdd058"/>
    <path d="M94.14 42.32c-2.15-2.15-5.66-2.15-7.81 0l-8.48 8.48-8.48-8.48c-2.15-2.15-5.66-2.15-7.81 0-2.15 2.15-2.15 5.66 0 7.81l8.48 8.48-8.48 8.48c-2.15 2.15-2.15 5.66 0 7.81 2.15 2.15 5.66 2.15 7.81 0l8.48-8.48 8.48 8.48c2.15 2.15 5.66 2.15 7.81 0 2.15-2.15 2.15-5.66 0-7.81l-8.48-8.48 8.48-8.48c2.15-2.16 2.15-5.67 0-7.81zM38.08 66.41c-2.15-2.15-5.66-2.15-7.81 0l-8.48 8.48-8.48-8.48c-2.15-2.15-5.66-2.15-7.81 0-2.15 2.15-2.15 5.66 0 7.81l8.48 8.48-8.48 8.48c-2.15 2.15-2.15 5.66 0 7.81 2.15 2.15 5.66 2.15 7.81 0l8.48-8.48 8.48 8.48c2.15 2.15 5.66 2.15 7.81 0 2.15-2.15 2.15-5.66 0-7.81l-8.48-8.48 8.48-8.48c2.16-2.15 2.16-5.66 0-7.81z" fill="#662a38" transform="translate(-15.5 -17.5) scale(1.2)"/>
    <path d="M90.72 96.23c-8.35 0-17.65-3.81-24.41-10.2-.46-.43-1.2-.41-1.64.04-6.77 6.43-16.08 10.16-24.42 10.16-8.34 0-17.65-3.73-24.41-10.19-.44-.44-1.18-.46-1.64-.04-6.77 6.39-16.07 10.19-24.42 10.19-4.42 0-8-3.59-8-8s3.58-8 8-8h93.44c4.42 0 8 3.59 8 8s-3.58 8-8 8z" fill="#662a38"/>
</svg>